<svg width="77" height="20" viewBox="0 0 77 20" fill="none" xmlns="http://www.w3.org/2000/svg">
<g clip-path="url(#clip0_2568_3062)">
<circle cx="67" cy="10" r="10" fill="#FFD8DD"/>
<circle cx="67" cy="10" r="6" fill="#FC5B70"/>
<path d="M10.2451 10.0508C10.2451 11.1035 10.0446 12.0127 9.64355 12.7783C9.24251 13.5439 8.69108 14.1296 7.98926 14.5352C7.29199 14.9362 6.50358 15.1367 5.62402 15.1367C4.73991 15.1367 3.94694 14.9362 3.24512 14.5352C2.54329 14.1296 1.99186 13.5439 1.59082 12.7783C1.18978 12.0081 0.989258 11.099 0.989258 10.0508C0.989258 8.99805 1.18978 8.08887 1.59082 7.32324C1.99186 6.55762 2.54329 5.97428 3.24512 5.57324C3.94694 5.16764 4.73991 4.96484 5.62402 4.96484C6.50358 4.96484 7.29199 5.16764 7.98926 5.57324C8.69108 5.97428 9.24251 6.55762 9.64355 7.32324C10.0446 8.08887 10.2451 8.99805 10.2451 10.0508ZM3.08105 10.0508C3.08105 10.7435 3.18359 11.3359 3.38867 11.8281C3.59831 12.3158 3.89453 12.6849 4.27734 12.9355C4.66016 13.1862 5.10905 13.3138 5.62402 13.3184C6.13444 13.3138 6.57878 13.1862 6.95703 12.9355C7.33984 12.6803 7.63379 12.3089 7.83887 11.8213C8.0485 11.3337 8.15332 10.7435 8.15332 10.0508C8.15332 9.35807 8.0485 8.7679 7.83887 8.28027C7.63379 7.78809 7.33984 7.41667 6.95703 7.16602C6.57878 6.91536 6.13444 6.78776 5.62402 6.7832C5.10905 6.78776 4.66016 6.91536 4.27734 7.16602C3.89453 7.41667 3.59831 7.78809 3.38867 8.28027C3.18359 8.7679 3.08105 9.35807 3.08105 10.0508Z" fill="#949494"/>
<path d="M19.9795 15H18.2021L13.8545 8.71094H13.7725V15H11.7217V5.10156H13.5264L17.8467 11.3906H17.9424V5.10156H19.9795V15Z" fill="#949494"/>
<path d="M24.3135 15L27.7451 5.10156H30.3838L33.8018 15H31.6006L30.8555 12.7168H27.2734L26.5283 15H24.3135ZM30.3359 11.1172L29.0986 7.33008H29.0303L27.793 11.1172H30.3359Z" fill="#949494"/>
<path d="M36.9736 15H34.9229V5.10156H36.9736V15Z" fill="#949494"/>
<path d="M38.6416 5.10156H42.5244C43.2627 5.10156 43.8984 5.23372 44.4316 5.49805C44.9648 5.76237 45.3704 6.13835 45.6484 6.62598C45.9264 7.10905 46.0654 7.67643 46.0654 8.32812C46.0654 9.0026 45.915 9.58138 45.6143 10.0645C45.3135 10.5475 44.8805 10.9098 44.3154 11.1514L46.4209 15H44.1514L42.2578 11.4863H40.6924V15H38.6416V5.10156ZM42.1416 9.81836C43.3538 9.81836 43.9554 9.32161 43.9463 8.32812C43.9508 7.82682 43.8027 7.44629 43.502 7.18652C43.2012 6.9222 42.7477 6.78776 42.1416 6.7832H40.6924V9.81836H42.1416Z" fill="#949494"/>
</g>
<defs>
<clipPath id="clip0_2568_3062">
<rect width="77" height="20" fill="white"/>
</clipPath>
</defs>
</svg>
