<svg width="49" height="40" viewBox="0 0 49 40" fill="none" xmlns="http://www.w3.org/2000/svg">
<path fill-rule="evenodd" clip-rule="evenodd" d="M3 0C1.34315 0 0 1.34315 0 3V28.9545C0 30.6114 1.34314 31.9545 3 31.9545H6.94821L7.05972 38.3041C7.073 39.0603 8.00899 39.536 8.69825 39.1368L21.1001 31.9545H46C47.6569 31.9545 49 30.6114 49 28.9545V3C49 1.34315 47.6569 0 46 0H3Z" fill="#333333"/>
<path d="M10.7598 16.8164H8.17578V15.2988H10.7598V12.7148H12.2637V15.2988H14.8613V16.8164H12.2637V19.4004H10.7598V16.8164ZM20.8633 21H19.0723V12.8379H19.0176L16.707 14.3145V12.6875L19.1543 11.1016H20.8633V21ZM26.9199 21.1367C26.127 21.1367 25.4456 20.9385 24.876 20.542C24.3063 20.141 23.8711 19.5599 23.5703 18.7988C23.2695 18.0378 23.1191 17.1217 23.1191 16.0508C23.1191 14.9844 23.2695 14.0706 23.5703 13.3096C23.8757 12.5439 24.3132 11.9629 24.8828 11.5664C25.4525 11.1654 26.1315 10.9648 26.9199 10.9648C27.7083 10.9648 28.3874 11.1654 28.957 11.5664C29.5267 11.9629 29.9619 12.5439 30.2627 13.3096C30.568 14.0706 30.7207 14.9844 30.7207 16.0508C30.7207 17.1217 30.568 18.04 30.2627 18.8057C29.9619 19.5667 29.5267 20.1455 28.957 20.542C28.3919 20.9385 27.7129 21.1367 26.9199 21.1367ZM24.9102 16.0508C24.9102 17.222 25.0856 18.113 25.4365 18.7236C25.792 19.3343 26.2865 19.6419 26.9199 19.6465C27.3346 19.6419 27.6924 19.5052 27.9932 19.2363C28.2939 18.9674 28.5241 18.5641 28.6836 18.0264C28.8477 17.4886 28.9297 16.8301 28.9297 16.0508C28.9297 15.276 28.8477 14.6198 28.6836 14.082C28.5241 13.5397 28.2939 13.1318 27.9932 12.8584C27.6924 12.585 27.3346 12.446 26.9199 12.4414C26.5052 12.446 26.1475 12.585 25.8467 12.8584C25.5459 13.1318 25.3135 13.5397 25.1494 14.082C24.9899 14.6198 24.9102 15.276 24.9102 16.0508ZM32.3066 11.1016H36.0254C36.7637 11.1016 37.3926 11.2406 37.9121 11.5186C38.4362 11.7965 38.8327 12.1839 39.1016 12.6807C39.3704 13.1729 39.5072 13.7402 39.5117 14.3828C39.5072 15.0208 39.3682 15.5859 39.0947 16.0781C38.8258 16.5703 38.4271 16.9554 37.8984 17.2334C37.3743 17.5114 36.7409 17.6504 35.998 17.6504H34.084V21H32.3066V11.1016ZM35.752 16.1875C36.3991 16.1829 36.8844 16.0189 37.208 15.6953C37.5316 15.3672 37.6934 14.9297 37.6934 14.3828C37.6934 13.8314 37.5316 13.3962 37.208 13.0771C36.8844 12.7536 36.3991 12.5918 35.752 12.5918H34.084V16.1875H35.752Z" fill="white"/>
</svg>
