<svg width="20" height="21" viewBox="0 0 20 21" fill="none" xmlns="http://www.w3.org/2000/svg">
<path d="M2 1C2 0.447715 1.55228 0 1 0C0.447715 0 0 0.447715 0 1H2ZM1 13H0V14H1V13ZM19.7071 13.7071C20.0976 13.3166 20.0976 12.6834 19.7071 12.2929L13.3431 5.92893C12.9526 5.53841 12.3195 5.53841 11.9289 5.92893C11.5384 6.31946 11.5384 6.95262 11.9289 7.34315L17.5858 13L11.9289 18.6569C11.5384 19.0474 11.5384 19.6805 11.9289 20.0711C12.3195 20.4616 12.9526 20.4616 13.3431 20.0711L19.7071 13.7071ZM0 1V13H2V1H0ZM1 14H19V12H1V14Z" fill="#CCCCCC"/>
</svg>
