<svg width="38" height="38" viewBox="0 0 38 38" fill="none" xmlns="http://www.w3.org/2000/svg">
<circle cx="19" cy="19" r="18.5" fill="white" stroke="#D9D9D9"/>
<path d="M16 10C16 8.34315 17.3431 7 19 7C20.6569 7 22 8.34315 22 10V17H16V10Z" fill="#CCCCCC"/>
<mask id="path-3-inside-1_3178_2718" fill="white">
<path fill-rule="evenodd" clip-rule="evenodd" d="M19.0001 7C17.1591 7 15.6667 8.49238 15.6667 10.3333V20.0103C14.0587 21.0867 13 22.9197 13 25C13 28.3137 15.6863 31 19 31C22.3137 31 25 28.3137 25 25C25 22.9198 23.9413 21.0868 22.3334 20.0104V10.3333C22.3334 8.49238 20.841 7 19.0001 7Z"/>
</mask>
<path d="M15.6667 20.0103L16.223 20.8413L16.6667 20.5443V20.0103H15.6667ZM22.3334 20.0104H21.3334V20.5444L21.7771 20.8414L22.3334 20.0104ZM16.6667 10.3333C16.6667 9.04467 17.7114 8 19.0001 8V6C16.6068 6 14.6667 7.9401 14.6667 10.3333H16.6667ZM16.6667 20.0103V10.3333H14.6667V20.0103H16.6667ZM14 25C14 23.2674 14.8805 21.74 16.223 20.8413L15.1105 19.1793C13.237 20.4333 12 22.572 12 25H14ZM19 30C16.2386 30 14 27.7614 14 25H12C12 28.866 15.134 32 19 32V30ZM24 25C24 27.7614 21.7614 30 19 30V32C22.866 32 26 28.866 26 25H24ZM21.7771 20.8414C23.1196 21.7401 24 23.2674 24 25H26C26 22.5721 24.7631 20.4335 22.8897 19.1794L21.7771 20.8414ZM21.3334 10.3333V20.0104H23.3334V10.3333H21.3334ZM19.0001 8C20.2887 8 21.3334 9.04467 21.3334 10.3333H23.3334C23.3334 7.9401 21.3933 6 19.0001 6V8Z" fill="#949494" mask="url(#path-3-inside-1_3178_2718)"/>
<rect x="19" y="11" width="3" height="0.75" fill="#949494"/>
<rect x="19" y="13.75" width="3" height="0.75" fill="#949494"/>
<rect x="19" y="16.5" width="3" height="0.75" fill="#949494"/>
</svg>
