<svg width="12" height="24" viewBox="0 0 12 24" fill="none" xmlns="http://www.w3.org/2000/svg">
<path d="M3 3C3 1.34315 4.34315 0 6 0C7.65685 0 9 1.34315 9 3V10H3V3Z" fill="#CCCCCC"/>
<mask id="path-2-inside-1_3119_4303" fill="white">
<path fill-rule="evenodd" clip-rule="evenodd" d="M6.00008 0C4.15913 0 2.66675 1.49238 2.66675 3.33333V13.0103C1.05872 14.0867 0 15.9197 0 18C0 21.3137 2.68629 24 6 24C9.31371 24 12 21.3137 12 18C12 15.9198 10.9413 14.0868 9.33342 13.0104V3.33333C9.33342 1.49238 7.84103 0 6.00008 0Z"/>
</mask>
<path d="M2.66675 13.0103L3.22299 13.8413L3.66675 13.5443V13.0103H2.66675ZM9.33342 13.0104H8.33342V13.5444L8.77714 13.8414L9.33342 13.0104ZM3.66675 3.33333C3.66675 2.04467 4.71142 1 6.00008 1V-1C3.60685 -1 1.66675 0.9401 1.66675 3.33333H3.66675ZM3.66675 13.0103V3.33333H1.66675V13.0103H3.66675ZM1 18C1 16.2674 1.88045 14.74 3.22299 13.8413L2.1105 12.1793C0.23699 13.4333 -1 15.572 -1 18H1ZM6 23C3.23858 23 1 20.7614 1 18H-1C-1 21.866 2.13401 25 6 25V23ZM11 18C11 20.7614 8.76142 23 6 23V25C9.86599 25 13 21.866 13 18H11ZM8.77714 13.8414C10.1196 14.7401 11 16.2674 11 18H13C13 15.5721 11.7631 13.4335 9.88969 12.1794L8.77714 13.8414ZM8.33342 3.33333V13.0104H10.3334V3.33333H8.33342ZM6.00008 1C7.28875 1 8.33342 2.04467 8.33342 3.33333H10.3334C10.3334 0.9401 8.39332 -1 6.00008 -1V1Z" fill="#949494" mask="url(#path-2-inside-1_3119_4303)"/>
<rect x="6" y="4" width="3" height="0.75" fill="#949494"/>
<rect x="6" y="6.75" width="3" height="0.75" fill="#949494"/>
<rect x="6" y="9.5" width="3" height="0.75" fill="#949494"/>
</svg>
