<svg width="32" height="32" viewBox="0 0 32 32" fill="none" xmlns="http://www.w3.org/2000/svg">
<g clip-path="url(#clip0_3456_2856)">
<path d="M30.64 0H1.36C0.608893 0 0 0.608893 0 1.36V30.64C0 31.3911 0.608893 32 1.36 32H30.64C31.3911 32 32 31.3911 32 30.64V1.36C32 0.608893 31.3911 0 30.64 0Z" fill="white"/>
<path d="M25.7099 21.85V16.65C25.7099 13.49 24.01 11.75 20.93 11.75C19.32 11.75 17.85 12.62 16.83 14.15C16.16 12.56 14.75 11.75 12.64 11.75C11.03 11.75 9.51995 12.52 8.60995 13.77C8.29995 12.53 7.58995 11.96 6.98995 11.96H3.69995V12.78H3.95995C4.90995 12.78 5.86995 13.05 5.86995 15.02V21.86C5.86995 23.83 4.89995 24.1 3.95995 24.1H3.69995V24.89H10.97V24.1H10.71C9.75995 24.1 8.79995 23.83 8.79995 21.86V15.65C9.28995 13.67 10.84 12.96 12.02 12.96C13.72 12.96 14.32 13.93 14.32 16.66V21.86C14.32 23.83 13.37 24.1 12.44 24.1H12.18V24.89H19.42V24.1H19.16C18.21 24.1 17.25 23.83 17.25 21.86V16.66C17.25 16.3 17.25 15.92 17.2 15.59C17.9 13.94 19.05 12.96 20.29 12.96C22.02 12.96 22.7999 14.1 22.7999 16.66V21.86C22.7999 23.83 21.83 24.1 20.8899 24.1H20.6299V24.89H27.9V24.1H27.6399C26.6899 24.1 25.7299 23.83 25.7299 21.86L25.7099 21.85Z" fill="#CBDD5A" stroke="black" stroke-width="0.26" stroke-miterlimit="10"/>
<path d="M24.57 9.89001L24.73 10.25L24.91 9.91001C25.31 9.17001 25.58 8.85001 26.23 8.36001L26.51 8.15001L26.22 7.96001C25.56 7.54001 25.28 7.21001 24.92 6.43001L24.73 6.01001L24.56 6.44001C24.25 7.23001 24.08 7.60001 23.27 7.97001L22.84 8.16001L23.25 8.39001C23.92 8.77001 24.19 9.07001 24.56 9.89001H24.57Z" fill="#231815"/>
</g>
<defs>
<clipPath id="clip0_3456_2856">
<rect width="32" height="32" fill="white"/>
</clipPath>
</defs>
</svg>
