<svg width="48" height="48" viewBox="0 0 48 48" fill="none" xmlns="http://www.w3.org/2000/svg">
<g clip-path="url(#clip0_2568_3069)">
<circle cx="24" cy="24" r="24" fill="#FE6262"/>
<path d="M32.6594 16.7488H28.6017V15.0591H18.4573V16.7488H14.3995C13.8255 16.7488 13.2751 16.9861 12.8692 17.4086C12.4634 17.8311 12.2354 18.4041 12.2354 19.0016V30.6885C12.2354 31.286 12.4634 31.8591 12.8692 32.2816C13.2751 32.7041 13.8255 32.9414 14.3995 32.9414H32.6594C33.2334 32.9414 33.7839 32.7041 34.1897 32.2816C34.5956 31.8591 34.8236 31.286 34.8236 30.6885V19.0016C34.8236 18.4041 34.5956 17.8311 34.1897 17.4086C33.7839 16.9861 33.2334 16.7488 32.6594 16.7488ZM23.5289 31.6742C19.9126 31.6742 16.9716 28.6102 16.9716 24.8457C16.9716 21.0811 19.9126 18.0171 23.5289 18.0171C27.1452 18.0171 30.0884 21.0811 30.0884 24.8457C30.0884 28.6102 27.1452 31.6719 23.5289 31.6719V31.6742ZM23.5289 20.2689C22.9515 20.269 22.3798 20.3874 21.8463 20.6175C21.3129 20.8476 20.8282 21.1849 20.4199 21.61C20.0117 22.0351 19.6879 22.5397 19.467 23.0951C19.2461 23.6505 19.1324 24.2457 19.1325 24.8468C19.1325 25.4479 19.2463 26.0431 19.4674 26.5984C19.6884 27.1537 20.0124 27.6583 20.4207 28.0833C20.8291 28.5083 21.3138 28.8454 21.8473 29.0753C22.3808 29.3053 22.9526 29.4236 23.53 29.4235C24.6963 29.4234 25.8148 28.9409 26.6394 28.0823C27.464 27.2237 27.9271 26.0592 27.927 24.8451C27.9269 23.631 27.4634 22.4666 26.6386 21.6082C25.8138 20.7498 24.6952 20.2676 23.5289 20.2678V20.2689Z" fill="white"/>
</g>
<defs>
<clipPath id="clip0_2568_3069">
<rect width="48" height="48" fill="white"/>
</clipPath>
</defs>
</svg>
