<svg width="20" height="20" viewBox="0 0 20 20" fill="none" xmlns="http://www.w3.org/2000/svg">
<circle cx="10" cy="10" r="10" fill="#EBEBEB"/>
<g clip-path="url(#clip0_2912_4994)">
<path d="M8.43751 5V5.55556H5.83334V6.66667H6.35418V13.8889C6.35418 14.1836 6.46392 14.4662 6.65927 14.6746C6.85462 14.8829 7.11958 15 7.39584 15H12.6042C12.8804 15 13.1454 14.8829 13.3407 14.6746C13.5361 14.4662 13.6458 14.1836 13.6458 13.8889V6.66667H14.1667V5.55556H11.5625V5H8.43751ZM7.39584 6.66667H12.6042V13.8889H7.39584V6.66667ZM8.43751 7.77778V12.7778H9.47918V7.77778H8.43751ZM10.5208 7.77778V12.7778H11.5625V7.77778H10.5208Z" fill="#C7C7C7"/>
</g>
<defs>
<clipPath id="clip0_2912_4994">
<rect width="10" height="10" fill="white" transform="translate(5 5)"/>
</clipPath>
</defs>
</svg>
