<svg width="48" height="48" viewBox="0 0 48 48" fill="none" xmlns="http://www.w3.org/2000/svg">
<g clip-path="url(#clip0_2568_3070)">
<circle cx="24" cy="24" r="24" fill="#EBEBEB"/>
<g clip-path="url(#clip1_2568_3070)">
<path d="M20.25 11.9998V13.3331H14V15.9998H15.25V33.3331C15.25 34.0403 15.5134 34.7186 15.9822 35.2187C16.4511 35.7188 17.087 35.9998 17.75 35.9998H30.25C30.913 35.9998 31.5489 35.7188 32.0178 35.2187C32.4866 34.7186 32.75 34.0403 32.75 33.3331V15.9998H34V13.3331H27.75V11.9998H20.25ZM17.75 15.9998H30.25V33.3331H17.75V15.9998ZM20.25 18.6664V30.6664H22.75V18.6664H20.25ZM25.25 18.6664V30.6664H27.75V18.6664H25.25Z" fill="#C7C7C7"/>
</g>
</g>
<defs>
<clipPath id="clip0_2568_3070">
<rect width="48" height="48" fill="white"/>
</clipPath>
<clipPath id="clip1_2568_3070">
<rect width="24" height="24" fill="white" transform="translate(12 11.9998)"/>
</clipPath>
</defs>
</svg>
