<svg width="34" height="34" viewBox="0 0 34 34" fill="none" xmlns="http://www.w3.org/2000/svg">
<path d="M0 0H34V34H0V0Z" fill="white"/>
<g clip-path="url(#clip0_3129_2715)">
<path d="M20.7206 13.1761C20.832 13.2889 20.8945 13.4418 20.8945 13.6013C20.8945 13.7608 20.832 13.9137 20.7206 14.0265L17.7808 17.0036L20.7206 19.9807C20.8288 20.0942 20.8887 20.2461 20.8873 20.4038C20.886 20.5615 20.8235 20.7123 20.7134 20.8238C20.6033 20.9354 20.4543 20.9986 20.2986 21C20.1429 21.0013 19.9929 20.9407 19.8808 20.8312L16.5211 17.4288C16.4097 17.3161 16.3472 17.1631 16.3472 17.0036C16.3472 16.8442 16.4097 16.6912 16.5211 16.5784L19.8808 13.1761C19.9922 13.0633 20.1433 13 20.3007 13C20.4582 13 20.6093 13.0633 20.7206 13.1761Z" fill="#949494"/>
</g>
<g clip-path="url(#clip1_3129_2715)">
<path d="M17.7206 13.1761C17.832 13.2889 17.8945 13.4418 17.8945 13.6013C17.8945 13.7608 17.832 13.9137 17.7206 14.0265L14.7808 17.0036L17.7206 19.9807C17.8288 20.0942 17.8887 20.2461 17.8873 20.4038C17.886 20.5615 17.8235 20.7123 17.7134 20.8238C17.6033 20.9354 17.4543 20.9986 17.2986 21C17.1429 21.0013 16.9929 20.9407 16.8808 20.8312L13.5211 17.4288C13.4097 17.3161 13.3472 17.1631 13.3472 17.0036C13.3472 16.8442 13.4097 16.6912 13.5211 16.5784L16.8808 13.1761C16.9922 13.0633 17.1433 13 17.3007 13C17.4582 13 17.6093 13.0633 17.7206 13.1761Z" fill="#949494"/>
</g>
<defs>
<clipPath id="clip0_3129_2715">
<rect width="8" height="8" fill="white" transform="matrix(1.39071e-07 1 1 -1.39071e-07 15 13)"/>
</clipPath>
<clipPath id="clip1_3129_2715">
<rect width="8" height="8" fill="white" transform="matrix(1.39071e-07 1 1 -1.39071e-07 12 13)"/>
</clipPath>
</defs>
</svg>
