<svg width="34" height="34" viewBox="0 0 34 34" fill="none" xmlns="http://www.w3.org/2000/svg">
<path d="M0 0H34V34H0V0Z" fill="white"/>
<g clip-path="url(#clip0_2985_3893)">
<path d="M14.2791 13.1761C14.1678 13.2889 14.1052 13.4418 14.1052 13.6013C14.1052 13.7608 14.1678 13.9137 14.2791 14.0265L17.219 17.0036L14.2791 19.9807C14.1709 20.0942 14.1111 20.2461 14.1124 20.4038C14.1138 20.5615 14.1762 20.7123 14.2863 20.8238C14.3965 20.9354 14.5454 20.9986 14.7011 21C14.8569 21.0013 15.0069 20.9407 15.1189 20.8312L18.4787 17.4288C18.59 17.3161 18.6526 17.1631 18.6526 17.0036C18.6526 16.8442 18.59 16.6912 18.4787 16.5784L15.1189 13.1761C15.0075 13.0633 14.8565 13 14.699 13C14.5415 13 14.3905 13.0633 14.2791 13.1761Z" fill="#949494"/>
</g>
<g clip-path="url(#clip1_2985_3893)">
<path d="M17.2791 13.1761C17.1678 13.2889 17.1052 13.4418 17.1052 13.6013C17.1052 13.7608 17.1678 13.9137 17.2791 14.0265L20.219 17.0036L17.2791 19.9807C17.1709 20.0942 17.1111 20.2461 17.1124 20.4038C17.1138 20.5615 17.1762 20.7123 17.2863 20.8238C17.3965 20.9354 17.5454 20.9986 17.7011 21C17.8569 21.0013 18.0069 20.9407 18.1189 20.8312L21.4787 17.4288C21.59 17.3161 21.6526 17.1631 21.6526 17.0036C21.6526 16.8442 21.59 16.6912 21.4787 16.5784L18.1189 13.1761C18.0075 13.0633 17.8565 13 17.699 13C17.5415 13 17.3905 13.0633 17.2791 13.1761Z" fill="#949494"/>
</g>
<defs>
<clipPath id="clip0_2985_3893">
<rect width="8" height="8" fill="white" transform="translate(20 13) rotate(90)"/>
</clipPath>
<clipPath id="clip1_2985_3893">
<rect width="8" height="8" fill="white" transform="translate(23 13) rotate(90)"/>
</clipPath>
</defs>
</svg>
