<svg width="48" height="48" viewBox="0 0 48 48" fill="none" xmlns="http://www.w3.org/2000/svg">
<circle cx="24" cy="24" r="24" fill="#CDCDCD"/>
<line x1="24.25" y1="12.75" x2="24.25" y2="36.25" stroke="white" stroke-width="1.5" stroke-linecap="square" stroke-dasharray="1 5"/>
<path d="M7.2 23.4738C6.66667 23.7818 6.66667 24.5516 7.2 24.8595L18.55 31.4124C19.0833 31.7203 19.75 31.3354 19.75 30.7196L19.75 17.6137C19.75 16.9979 19.0833 16.613 18.55 16.9209L7.2 23.4738Z" fill="white"/>
<path d="M41.0917 24.21L29.7417 30.7629C29.7284 30.7706 29.7212 30.7708 29.7174 30.7708C29.7112 30.7707 29.7019 30.7688 29.6917 30.7629C29.6816 30.757 29.6753 30.7499 29.6721 30.7447C29.6701 30.7414 29.6667 30.735 29.6667 30.7196L29.6667 17.6137C29.6667 17.5983 29.6701 17.592 29.6721 17.5887C29.6753 17.5834 29.6816 17.5763 29.6917 17.5704C29.7019 17.5646 29.7112 17.5627 29.7174 17.5626C29.7212 17.5625 29.7284 17.5627 29.7417 17.5704L41.0917 24.1234C41.1051 24.1311 41.1089 24.1372 41.1108 24.1405C41.1137 24.1459 41.1167 24.1549 41.1167 24.1667C41.1167 24.1784 41.1137 24.1874 41.1108 24.1928C41.1089 24.1962 41.1051 24.2022 41.0917 24.21Z" stroke="white" stroke-width="1.5"/>
</svg>
