<svg width="22" height="18" viewBox="-3 -4 26 27" fill="none" xmlns="http://www.w3.org/2000/svg">
<path d="M15.6875 0C13.7516 0 12.0566 0.8325 11 2.23969C9.94344 0.8325 8.24844 0 6.3125 0C4.77146 0.00173694 3.29404 0.614681 2.20436 1.70436C1.11468 2.79404 0.501737 4.27146 0.5 5.8125C0.5 12.375 10.2303 17.6869 10.6447 17.9062C10.7539 17.965 10.876 17.9958 11 17.9958C11.124 17.9958 11.2461 17.965 11.3553 17.9062C11.7697 17.6869 21.5 12.375 21.5 5.8125C21.4983 4.27146 20.8853 2.79404 19.7956 1.70436C18.706 0.614681 17.2285 0.00173694 15.6875 0ZM11 16.3875C9.28813 15.39 2 10.8459 2 5.8125C2.00149 4.66921 2.45632 3.57317 3.26475 2.76475C4.07317 1.95632 5.16921 1.50149 6.3125 1.5C8.13594 1.5 9.66687 2.47125 10.3062 4.03125C10.3628 4.16881 10.4589 4.28646 10.5824 4.36926C10.7059 4.45206 10.8513 4.49627 11 4.49627C11.1487 4.49627 11.2941 4.45206 11.4176 4.36926C11.5411 4.28646 11.6372 4.16881 11.6937 4.03125C12.3331 2.46844 13.8641 1.5 15.6875 1.5C16.8308 1.50149 17.9268 1.95632 18.7353 2.76475C19.5437 3.57317 19.9985 4.66921 20 5.8125C20 10.8384 12.71 15.3891 11 16.3875Z" fill="#949494"/>
</svg>
