<svg width="34" height="34" viewBox="0 0 34 34" fill="none" xmlns="http://www.w3.org/2000/svg">
<path d="M0 0H34V34H0V0Z" fill="white"/>
<g clip-path="url(#clip0_3129_2716)">
<path d="M18.7206 13.1761C18.832 13.2889 18.8945 13.4418 18.8945 13.6013C18.8945 13.7608 18.832 13.9137 18.7206 14.0265L15.7808 17.0036L18.7206 19.9807C18.8288 20.0942 18.8887 20.2461 18.8873 20.4038C18.886 20.5615 18.8235 20.7123 18.7134 20.8238C18.6033 20.9354 18.4543 20.9986 18.2986 21C18.1429 21.0013 17.9929 20.9407 17.8808 20.8312L14.5211 17.4288C14.4097 17.3161 14.3472 17.1631 14.3472 17.0036C14.3472 16.8442 14.4097 16.6912 14.5211 16.5784L17.8808 13.1761C17.9922 13.0633 18.1433 13 18.3007 13C18.4582 13 18.6093 13.0633 18.7206 13.1761Z" fill="#949494"/>
</g>
<defs>
<clipPath id="clip0_3129_2716">
<rect width="8" height="8" fill="white" transform="matrix(1.39071e-07 1 1 -1.39071e-07 13 13)"/>
</clipPath>
</defs>
</svg>
