<svg width="34" height="34" viewBox="0 0 34 34" fill="none" xmlns="http://www.w3.org/2000/svg">
<path d="M0 0H34V34H0V0Z" fill="white"/>
<g clip-path="url(#clip0_2985_3892)">
<path d="M15.2794 13.1761C15.168 13.2889 15.1055 13.4418 15.1055 13.6013C15.1055 13.7608 15.168 13.9137 15.2794 14.0265L18.2192 17.0036L15.2794 19.9807C15.1712 20.0942 15.1113 20.2461 15.1127 20.4038C15.114 20.5615 15.1765 20.7123 15.2866 20.8238C15.3967 20.9354 15.5457 20.9986 15.7014 21C15.8571 21.0013 16.0071 20.9407 16.1192 20.8312L19.4789 17.4288C19.5903 17.3161 19.6528 17.1631 19.6528 17.0036C19.6528 16.8442 19.5903 16.6912 19.4789 16.5784L16.1192 13.1761C16.0078 13.0633 15.8567 13 15.6993 13C15.5418 13 15.3907 13.0633 15.2794 13.1761Z" fill="#949494"/>
</g>
<defs>
<clipPath id="clip0_2985_3892">
<rect width="8" height="8" fill="white" transform="translate(21 13) rotate(90)"/>
</clipPath>
</defs>
</svg>
