<svg width="24" height="21" viewBox="0 0 24 21" fill="none" xmlns="http://www.w3.org/2000/svg">
<path d="M12 17.7385C16.9705 17.7385 21 14.0977 21 11.6135C21 9.1294 16.9705 5.48853 12 5.48853C7.0295 5.48853 3 9.13203 3 11.6135C3 14.095 7.0295 17.7385 12 17.7385Z" stroke="#CCCCCC" stroke-linejoin="round"/>
<path d="M12 14.2385C12.7956 14.2385 13.5587 13.962 14.1213 13.4697C14.6839 12.9774 15 12.3097 15 11.6135C15 10.9173 14.6839 10.2497 14.1213 9.75737C13.5587 9.26509 12.7956 8.98853 12 8.98853C11.2044 8.98853 10.4413 9.26509 9.87868 9.75737C9.31607 10.2497 9 10.9173 9 11.6135C9 12.3097 9.31607 12.9774 9.87868 13.4697C10.4413 13.962 11.2044 14.2385 12 14.2385Z" stroke="#CCCCCC" stroke-linejoin="round"/>
<path d="M6.63208 4.7299L7.92908 6.31365M17.8126 4.92415L16.5151 6.5079M12.0046 2.86353V5.48853" stroke="#CCCCCC" stroke-linecap="round"/>
</svg>
